<mxfile host="app.diagrams.net" agent="Mozilla/5.0 (Macintosh; Intel Mac OS X 10_15_7) AppleWebKit/605.1.15 (KHTML, like Gecko) Version/17.5 Safari/605.1.15" version="24.7.5">
  <diagram name="Page-1" id="qHie082a5cEye1tV1nNR">
    <mxGraphModel dx="1520" dy="798" grid="0" gridSize="10" guides="1" tooltips="1" connect="1" arrows="1" fold="1" page="0" pageScale="1" pageWidth="827" pageHeight="1169" math="0" shadow="0">
      <root>
        <mxCell id="0" />
        <mxCell id="1" parent="0" />
        <mxCell id="YHbYcHCBXBletzS5WVZL-2" value="S3: doc-firmware" style="sketch=0;outlineConnect=0;fontColor=#232F3E;gradientColor=none;fillColor=#232F3D;strokeColor=none;dashed=0;verticalLabelPosition=bottom;verticalAlign=top;align=center;html=1;fontSize=12;fontStyle=0;aspect=fixed;pointerEvents=1;shape=mxgraph.aws4.generic_database;" vertex="1" parent="1">
          <mxGeometry x="282" y="166" width="59" height="78" as="geometry" />
        </mxCell>
        <mxCell id="YHbYcHCBXBletzS5WVZL-3" value="smart-vac-gauge" style="sketch=0;outlineConnect=0;fontColor=#232F3E;gradientColor=none;fillColor=#7AA116;strokeColor=none;dashed=0;verticalLabelPosition=bottom;verticalAlign=top;align=center;html=1;fontSize=12;fontStyle=0;aspect=fixed;pointerEvents=1;shape=mxgraph.aws4.iot_greengrass_protocol;" vertex="1" parent="1">
          <mxGeometry x="-22" y="70" width="78" height="78" as="geometry" />
        </mxCell>
      </root>
    </mxGraphModel>
  </diagram>
</mxfile>
